/* XPM */
static char *btc[] = {
/* columns rows colors chars-per-pixel */
"48 48 57 1 ",
"  c #3497DB",
". c #3597DB",
"X c #3398DA",
"o c #3398DB",
"O c #3498DA",
"+ c #3499DA",
"@ c #3498DB",
"# c #3598DB",
"$ c #3499DB",
"% c #3699DB",
"& c #3398DC",
"* c #3498DC",
"= c #3499DC",
"- c #3A9BDB",
"; c #3C9CDB",
": c #3E9DDB",
"> c #409EDB",
", c #429FDC",
"< c #46A0DB",
"1 c #47A1DB",
"2 c #4CA3DB",
"3 c #4DA4DC",
"4 c #51A6DC",
"5 c #56A8DC",
"6 c #5DACDC",
"7 c #5EACDC",
"8 c #65AFDD",
"9 c #68B0DC",
"0 c #70B4DD",
"q c #70B5DD",
"w c #76B8DD",
"e c #84BDDD",
"r c #85BEDD",
"t c #89C0DD",
"y c #88C0DE",
"u c #8FC3DE",
"i c #93C5DE",
"p c #9DC9DE",
"a c #A3CDDF",
"s c #A7CEDE",
"d c #ABD0DE",
"f c #C1DADF",
"g c #C6DDDF",
"h c #CEE1DF",
"j c #C4DCE0",
"k c #C5DDE0",
"l c #E2EAE0",
"z c #E4EBE0",
"x c #EEF1E0",
"c c #F0F1E0",
"v c #F6F4E0",
"b c #F8F4E1",
"n c #F9F5E1",
"m c #FDF7E1",
"M c #FEF8E1",
"N c #FFF8E1",
"B c None",
/* pixels */
"BBBBBBBBBBBBBBBBBBBBBBBBBBBBBBBBBBBBBBBBBBBBBBBB",
"BBBBBBBBBBBBBBBBBBBBBBBBBBBBBBBBBBBBBBBBBBBBBBBB",
"BBBBBBBBBBBBBBBBBBBBBBBBBBBBBBBBBBBBBBBBBBBBBBBB",
"BBBBBBBBBBBBBBBBBBBBBBBBBBBBBBBBBBBBBBBBBBBBBBBB",
"BBBBBBBBBBBBBBBBBBBB@@####++BBBBBBBBBBBBBBBBBBBB",
"BBBBBBBBBBBBBBBB=o@@@@@@@@@@@@@.BBBBBBBBBBBBBBBB",
"BBBBBBBBBBBBBB$@@@@@@@@@@@@@@@@@@&BBBBBBBBBBBBBB",
"BBBBBBBBBBBBB @@@@@@@@@@@@@@@@@@@@@BBBBBBBBBBBBB",
"BBBBBBBBBBBO@@@@@@@@@@@@@@@@@@@@@@@@@BBBBBBBBBBB",
"BBBBBBBBBB@@@@@@@@@@@@@@@@@@@@@@@@@@@ BBBBBBBBBB",
"BBBBBBBBB @@@@@@@@@@@@@@@@@@@@@@@@@@@@@BBBBBBBBB",
"BBBBBBBB.@@@@@@@@@@@NNN@@NNN@@@@@@@@@@@&BBBBBBBB",
"BBBBBBBB@@@@@@@@@@@@NNN@@NNN@@@@@@@@@@@@BBBBBBBB",
"BBBBBBB@@@@@@@@@@@@@NNN@@NNN@@@@@@@@@@@@@BBBBBBB",
"BBBBBB@@@@@@@@@@@NNNNNNNNNNNd9@@@@@@@@@@@*BBBBBB",
"BBBBBB@@@@@@@@@@@NNNNNNNNNNNNNk:@@@@@@@@@@BBBBBB",
"BBBBB.@@@@@@@@@@@NNNNNNNNNNNNNNf@@@@@@@@@@+BBBBB",
"BBBBB@@@@@@@@@@@@NNNN@@@@>5aNNNN6@@@@@@@@@ BBBBB",
"BBBBB@@@@@@@@@@@@NNNN@@@@@@@hNNNu@@@@@@@@@@BBBBB",
"BBBBB@@@@@@@@@@@@NNNN@@@@@@@dNNNp@@@@@@@@@@BBBBB",
"BBBB@@@@@@@@@@@@@NNNN@@@@@@@hNNNr@@@@@@@@@@$BBBB",
"BBBB@@@@@@@@@@@@@NNNN@@@@%4dNNNn<@@@@@@@@@@@BBBB",
"BBBB@@@@@@@@@@@@@NNNNNNNNNNNNNMy@@@@@@@@@@@@BBBB",
"BBBB@@@@@@@@@@@@@NNNNNNNNNNNNv0@@@@@@@@@@@@@BBBB",
"BBBB@@@@@@@@@@@@@NNNNNNNNNNNNNxw@@@@@@@@@@@@BBBB",
"BBBB@@@@@@@@@@@@@NNNN@@@@@2tbNNm8@@@@@@@@@@@BBBB",
"BBBB@@@@@@@@@@@@@NNNN@@@@@@@iNNNj@@@@@@@@@@@BBBB",
"BBBB$@@@@@@@@@@@@NNNN@@@@@@@3NNNx@@@@@@@@@@#BBBB",
"BBBBB@@@@@@@@@@@@NNNN@@@@@@@;NNNb@@@@@@@@@@BBBBB",
"BBBBB@@@@@@@@@@@@NNNN@@@@@@@qNNNl@@@@@@@@@@BBBBB",
"BBBBB@@@@@@@@@@@@NNNN@@@@@,rcNNNs@@@@@@@@@@BBBBB",
"BBBBB.@@@@@@@@@@@NNNNNNNNNNNNNNc1@@@@@@@@@+BBBBB",
"BBBBBB@@@@@@@@@@@NNNNNNNNNNNNNz7@@@@@@@@@@BBBBBB",
"BBBBBB@@@@@@@@@@@NNNNNNNNNNNge-@@@@@@@@@@@BBBBBB",
"BBBBBBB*@@@@@@@@@@@@NNN@@NNN@@@@@@@@@@@@oBBBBBBB",
"BBBBBBBB@@@@@@@@@@@@NNN@@NNN@@@@@@@@@@@@BBBBBBBB",
"BBBBBBBB.@@@@@@@@@@@NNN@@NNN@@@@@@@@@@@&BBBBBBBB",
"BBBBBBBBBX@@@@@@@@@@@@@@@@@@@@@@@@@@@@$BBBBBBBBB",
"BBBBBBBBBB@@@@@@@@@@@@@@@@@@@@@@@@@@@ BBBBBBBBBB",
"BBBBBBBBBBBO@@@@@@@@@@@@@@@@@@@@@@@@@BBBBBBBBBBB",
"BBBBBBBBBBBBB @@@@@@@@@@@@@@@@@@@@@BBBBBBBBBBBBB",
"BBBBBBBBBBBBBB$@@@@@@@@@@@@@@@@@@&BBBBBBBBBBBBBB",
"BBBBBBBBBBBBBBBB=o@@@@@@@@@@@@@.BBBBBBBBBBBBBBBB",
"BBBBBBBBBBBBBBBBBBBB@@#@@#++BBBBBBBBBBBBBBBBBBBB",
"BBBBBBBBBBBBBBBBBBBBBBBBBBBBBBBBBBBBBBBBBBBBBBBB",
"BBBBBBBBBBBBBBBBBBBBBBBBBBBBBBBBBBBBBBBBBBBBBBBB",
"BBBBBBBBBBBBBBBBBBBBBBBBBBBBBBBBBBBBBBBBBBBBBBBB",
"BBBBBBBBBBBBBBBBBBBBBBBBBBBBBBBBBBBBBBBBBBBBBBBB"
};
